<mxfile host="app.diagrams.net" agent="Mozilla/5.0 (Windows NT 10.0; Win64; x64) AppleWebKit/537.36 (KHTML, like Gecko) Chrome/129.0.0.0 Safari/537.36" version="24.7.17">
  <diagram name="Page-1" id="TVXYd4DqbVSWxKjauSj4">
    <mxGraphModel dx="934" dy="539" grid="1" gridSize="10" guides="1" tooltips="1" connect="1" arrows="1" fold="1" page="1" pageScale="1" pageWidth="850" pageHeight="1100" math="0" shadow="0">
      <root>
        <mxCell id="0" />
        <mxCell id="1" parent="0" />
        <mxCell id="E7HtelMShyUas9rmYbfo-1" value="Patient" style="shape=umlActor;verticalLabelPosition=bottom;verticalAlign=top;html=1;outlineConnect=0;" parent="1" vertex="1">
          <mxGeometry x="250" y="170" width="30" height="60" as="geometry" />
        </mxCell>
        <mxCell id="E7HtelMShyUas9rmYbfo-3" value=":UI" style="rounded=0;whiteSpace=wrap;html=1;" parent="1" vertex="1">
          <mxGeometry x="430" y="170" width="120" height="60" as="geometry" />
        </mxCell>
        <mxCell id="E7HtelMShyUas9rmYbfo-8" value="" style="endArrow=classic;html=1;rounded=0;curved=1;entryX=0.833;entryY=0;entryDx=0;entryDy=0;entryPerimeter=0;" parent="1" target="E7HtelMShyUas9rmYbfo-3" edge="1">
          <mxGeometry width="50" height="50" relative="1" as="geometry">
            <mxPoint x="450" y="170" as="sourcePoint" />
            <mxPoint x="460" y="60" as="targetPoint" />
            <Array as="points">
              <mxPoint x="490" y="80" />
            </Array>
          </mxGeometry>
        </mxCell>
        <mxCell id="E7HtelMShyUas9rmYbfo-9" value="Invalid Sign up info()" style="text;html=1;align=center;verticalAlign=middle;whiteSpace=wrap;rounded=0;" parent="1" vertex="1">
          <mxGeometry x="420" y="80" width="140" height="30" as="geometry" />
        </mxCell>
        <mxCell id="E7HtelMShyUas9rmYbfo-13" value=":Mister Ed System" style="whiteSpace=wrap;html=1;aspect=fixed;" parent="1" vertex="1">
          <mxGeometry x="700" y="160" width="80" height="80" as="geometry" />
        </mxCell>
        <mxCell id="E7HtelMShyUas9rmYbfo-14" value="" style="endArrow=classic;html=1;rounded=0;curved=1;entryX=0.842;entryY=0.008;entryDx=0;entryDy=0;entryPerimeter=0;" parent="1" target="E7HtelMShyUas9rmYbfo-13" edge="1">
          <mxGeometry width="50" height="50" relative="1" as="geometry">
            <mxPoint x="710" y="160" as="sourcePoint" />
            <mxPoint x="760" y="110" as="targetPoint" />
            <Array as="points">
              <mxPoint x="740" y="100" />
            </Array>
          </mxGeometry>
        </mxCell>
        <mxCell id="E7HtelMShyUas9rmYbfo-17" value="Invalid request()" style="text;html=1;align=center;verticalAlign=middle;whiteSpace=wrap;rounded=0;" parent="1" vertex="1">
          <mxGeometry x="700" y="90" width="90" height="30" as="geometry" />
        </mxCell>
        <mxCell id="E7HtelMShyUas9rmYbfo-19" value="" style="endArrow=classic;html=1;rounded=0;exitX=0.142;exitY=1.008;exitDx=0;exitDy=0;curved=1;entryX=0.883;entryY=1.025;entryDx=0;entryDy=0;entryPerimeter=0;exitPerimeter=0;" parent="1" source="E7HtelMShyUas9rmYbfo-13" target="E7HtelMShyUas9rmYbfo-13" edge="1">
          <mxGeometry width="50" height="50" relative="1" as="geometry">
            <mxPoint x="740" y="290" as="sourcePoint" />
            <mxPoint x="780" y="250" as="targetPoint" />
            <Array as="points">
              <mxPoint x="740" y="330" />
            </Array>
          </mxGeometry>
        </mxCell>
        <mxCell id="E7HtelMShyUas9rmYbfo-20" value="3. Run triage algorithm()" style="text;html=1;align=center;verticalAlign=middle;whiteSpace=wrap;rounded=0;" parent="1" vertex="1">
          <mxGeometry x="660" y="290" width="170" height="30" as="geometry" />
        </mxCell>
        <mxCell id="E7HtelMShyUas9rmYbfo-22" value="" style="endArrow=classic;html=1;rounded=0;exitX=1;exitY=0.25;exitDx=0;exitDy=0;" parent="1" source="E7HtelMShyUas9rmYbfo-13" edge="1" target="E7HtelMShyUas9rmYbfo-30">
          <mxGeometry relative="1" as="geometry">
            <mxPoint x="810" y="170" as="sourcePoint" />
            <mxPoint x="950" y="120" as="targetPoint" />
          </mxGeometry>
        </mxCell>
        <mxCell id="E7HtelMShyUas9rmYbfo-23" value="4.1. Patient request data()" style="edgeLabel;resizable=0;html=1;;align=center;verticalAlign=middle;" parent="E7HtelMShyUas9rmYbfo-22" connectable="0" vertex="1">
          <mxGeometry relative="1" as="geometry" />
        </mxCell>
        <mxCell id="E7HtelMShyUas9rmYbfo-26" value="" style="endArrow=classic;html=1;rounded=0;exitX=1;exitY=0.5;exitDx=0;exitDy=0;" parent="1" source="E7HtelMShyUas9rmYbfo-13" edge="1">
          <mxGeometry width="50" height="50" relative="1" as="geometry">
            <mxPoint x="840" y="270" as="sourcePoint" />
            <mxPoint x="1020" y="210" as="targetPoint" />
          </mxGeometry>
        </mxCell>
        <mxCell id="E7HtelMShyUas9rmYbfo-27" value="4.2. Patient request data()" style="edgeLabel;html=1;align=center;verticalAlign=middle;resizable=0;points=[];" parent="E7HtelMShyUas9rmYbfo-26" vertex="1" connectable="0">
          <mxGeometry x="-0.2853" relative="1" as="geometry">
            <mxPoint as="offset" />
          </mxGeometry>
        </mxCell>
        <mxCell id="E7HtelMShyUas9rmYbfo-30" value="ER" style="shape=umlActor;verticalLabelPosition=bottom;verticalAlign=top;html=1;outlineConnect=0;" parent="1" vertex="1">
          <mxGeometry x="1000" y="90" width="30" height="60" as="geometry" />
        </mxCell>
        <mxCell id="E7HtelMShyUas9rmYbfo-32" value="General Practitioner" style="shape=umlActor;verticalLabelPosition=bottom;verticalAlign=top;html=1;outlineConnect=0;" parent="1" vertex="1">
          <mxGeometry x="1010" y="180" width="30" height="60" as="geometry" />
        </mxCell>
        <mxCell id="E7HtelMShyUas9rmYbfo-35" value="" style="endArrow=none;html=1;rounded=0;entryX=-0.033;entryY=0.608;entryDx=0;entryDy=0;entryPerimeter=0;" parent="1" target="E7HtelMShyUas9rmYbfo-13" edge="1">
          <mxGeometry width="50" height="50" relative="1" as="geometry">
            <mxPoint x="550" y="210" as="sourcePoint" />
            <mxPoint x="600" y="160" as="targetPoint" />
          </mxGeometry>
        </mxCell>
        <mxCell id="E7HtelMShyUas9rmYbfo-36" value="2. Request Triage()" style="text;html=1;align=center;verticalAlign=middle;whiteSpace=wrap;rounded=0;" parent="1" vertex="1">
          <mxGeometry x="560" y="160" width="120" height="30" as="geometry" />
        </mxCell>
        <mxCell id="E7HtelMShyUas9rmYbfo-37" value="" style="endArrow=classic;html=1;rounded=0;" parent="1" edge="1">
          <mxGeometry width="50" height="50" relative="1" as="geometry">
            <mxPoint x="580" y="190" as="sourcePoint" />
            <mxPoint x="680" y="190" as="targetPoint" />
          </mxGeometry>
        </mxCell>
        <mxCell id="E7HtelMShyUas9rmYbfo-38" value="" style="endArrow=classic;html=1;rounded=0;curved=1;" parent="1" edge="1">
          <mxGeometry width="50" height="50" relative="1" as="geometry">
            <mxPoint x="690" y="230" as="sourcePoint" />
            <mxPoint x="290" y="230" as="targetPoint" />
            <Array as="points">
              <mxPoint x="500" y="270" />
            </Array>
          </mxGeometry>
        </mxCell>
        <mxCell id="E7HtelMShyUas9rmYbfo-42" value="" style="endArrow=none;html=1;rounded=0;entryX=0;entryY=0.5;entryDx=0;entryDy=0;" parent="1" source="E7HtelMShyUas9rmYbfo-1" target="E7HtelMShyUas9rmYbfo-3" edge="1">
          <mxGeometry width="50" height="50" relative="1" as="geometry">
            <mxPoint x="480" y="230" as="sourcePoint" />
            <mxPoint x="530" y="180" as="targetPoint" />
          </mxGeometry>
        </mxCell>
        <mxCell id="E7HtelMShyUas9rmYbfo-43" value="" style="endArrow=classic;html=1;rounded=0;" parent="1" edge="1">
          <mxGeometry width="50" height="50" relative="1" as="geometry">
            <mxPoint x="310" y="190" as="sourcePoint" />
            <mxPoint x="400" y="190" as="targetPoint" />
          </mxGeometry>
        </mxCell>
        <mxCell id="E7HtelMShyUas9rmYbfo-45" value="1. Enter Patient Info()" style="text;html=1;align=center;verticalAlign=middle;whiteSpace=wrap;rounded=0;" parent="1" vertex="1">
          <mxGeometry x="310" y="150" width="90" height="30" as="geometry" />
        </mxCell>
        <mxCell id="fuq9UqZBYdQqr-HVW3kC-2" value="5. Email Response ()" style="text;html=1;align=center;verticalAlign=middle;whiteSpace=wrap;rounded=0;" vertex="1" parent="1">
          <mxGeometry x="460" y="260" width="60" height="30" as="geometry" />
        </mxCell>
      </root>
    </mxGraphModel>
  </diagram>
</mxfile>
